<svg t="1682391474965" class="icon" viewBox="0 0 1024 1024" version="1.1" xmlns="http://www.w3.org/2000/svg" p-id="4445"
     width="40" height="40">
    <path d="M582.002342 621.85477a5.748285 5.748285 0 0 0-5.750718 5.745852 29.828809 29.828809 0 1 1-59.632075 0 5.772612 5.772612 0 0 0-11.545223 0 29.831242 29.831242 0 1 1-59.635725 0 5.768963 5.768963 0 0 0-5.770179-5.770179 5.772612 5.772612 0 0 0-5.775044 5.770179c0 18.646046 12.472052 34.992049 30.457642 39.909594 17.98559 4.918761 37.0391-2.803597 46.528758-18.856468 9.481144 16.05652 28.53587 23.782527 46.523892 18.863766s30.457642-21.26598 30.450344-39.915675a5.74342 5.74342 0 0 0-1.722296-4.100184 5.726392 5.726392 0 0 0-4.129376-1.646885z m0 0"
          fill="#e1ffff" p-id="4446"></path>
    <path d="M810.082533 555.264179a188.659554 188.659554 0 0 0-16.44574-76.701782c2.537225-8.975158 11.173032-45.076483 11.173033-120.221388 0-75.590075-18.112086-117.211018-30.963628-122.6309a8.767169 8.767169 0 0 0-9.837522 1.691889l-113.346799 110.793762c-85.009186-35.045567-192.326732-35.045567-277.32862 0l-113.35288-110.793762a8.780549 8.780549 0 0 0-9.843604-1.691889c-12.853974 5.4138-30.959978 46.988523-30.959978 122.509269 0 75.259238 8.623644 111.362995 11.174248 120.350316a188.450349 188.450349 0 0 0-16.439658 76.695702v30.79456a211.931231 211.931231 0 0 0 2.435055 32.243186v0.197042c0.003649 0.696946 0.128929 1.392676 0.381921 2.045835a187.365399 187.365399 0 0 0 30.618195 76.353918 5.758016 5.758016 0 0 0 2.919146 4.1014c40.045821 54.733991 110.471439 88.10713 197.492404 88.107131h128.485004c87.020965 0 157.4478-33.365841 197.49362-88.107131a5.761665 5.761665 0 0 0 2.916714-4.1014 187.35202 187.35202 0 0 0 30.634007-76.403787 5.747069 5.747069 0 0 0 0.361244-1.988668v-0.137443a211.565121 211.565121 0 0 0 2.442353-32.330761l-0.008515-30.775099zM576.241894 777.552298H447.749592c-90.044714 0-150.878504-33.047168-185.865688-79.6635l46.290361-23.77523a5.772612 5.772612 0 0 0 2.493437-7.778308 5.773828 5.773828 0 0 0-7.773443-2.494654l-47.714661 24.5038a182.669223 182.669223 0 0 1-25.96094-64.080124h76.316212a5.772612 5.772612 0 1 0 0-11.545224H227.272561a196.256632 196.256632 0 0 1-1.818385-26.661535v-30.79456a177.406245 177.406245 0 0 1 16.296133-73.9067l0.932911-2.070161-0.71884-2.157736c-0.111901-0.336918-11.250876-34.888662-11.250876-118.919935 0-72.214812 16.316811-105.2486 22.72677-111.047971l117.298592 114.682308 3.546763-1.509442c83.912074-35.780218 191.464367-35.7863 275.398334 0l3.549196 1.509442 117.291294-114.667712c6.418473 5.834643 22.734067 38.932896 22.734068 111.16352 0 83.908425-11.118298 118.461386-11.263039 118.797088l-0.715191 2.156519 0.934127 2.051917a177.575313 177.575313 0 0 1 16.308296 73.910349v30.79456c0 8.917992-0.608155 17.825037-1.817168 26.661535h-78.247714a5.773828 5.773828 0 0 0 0 11.545223h76.308914a182.671655 182.671655 0 0 1-25.963373 64.081341l-47.732905-24.491637a5.779909 5.779909 0 0 0-7.778309 2.494654 5.778693 5.778693 0 0 0 2.497087 7.778309l46.291577 23.775229c-34.926368 46.579843-95.794215 79.658635-185.838929 79.658635z m0 0"
          fill="#e1ffff" p-id="4447"></path>
    <path d="M310.554586 390.497837c-37.417373-25.389274-38.3515-76.33689-38.36488-78.023913a5.761665 5.761665 0 1 0-11.49657-0.790602c-0.05595 0.544907 0.280968 59.110278 43.404055 88.37107a5.776261 5.776261 0 0 0 5.75315 0.413546 5.768963 5.768963 0 0 0 0.712759-9.964019l-0.008514-0.006082z m407.566328 9.557771c43.107275-29.255927 43.463654-87.821297 43.402839-88.37107a5.760449 5.760449 0 0 0-11.495355 0.716407c0 0.519365-0.509634 52.376781-38.364879 78.062835a5.762881 5.762881 0 1 0 0.716407 9.96037 5.755583 5.755583 0 0 0 5.748286-0.409896l-0.007298 0.041354z m0 0M430.141059 527.010493c-12.463538-13.374555-25.302916-19.876953-38.170269-19.300422-20.226034 0.891556-34.341323 18.711727-34.481199 18.891742l-9.59426-7.475447c0.713975-0.915882 17.76787-22.42999 43.539065-23.566024 16.596562-0.732219 32.601998 7.060685 47.603977 23.15856l-8.897314 8.291591zM660.8424 527.010493c-12.434347-13.344147-25.242101-19.840464-38.081479-19.304071-20.126297 0.838038-34.437411 18.726323-34.578503 18.907554l-9.58453-7.48761c0.712758-0.915882 17.76787-22.431206 43.539066-23.566024 16.581967-0.735868 32.601998 7.060685 47.603977 23.15856l-8.898531 8.291591z"
          fill="#e1ffff" p-id="4448"></path>
</svg>